<svg width="44" height="44" viewBox="0 0 44 44" fill="none" xmlns="http://www.w3.org/2000/svg">
<g clip-path="url(#clip0_43_45)">
<path d="M14.6668 43.9998C18.7148 43.9998 22.0002 40.7144 22.0002 36.6664V29.333H14.6668C10.6188 29.333 7.33334 32.6184 7.33334 36.6664C7.33334 40.7144 10.6188 43.9998 14.6668 43.9998Z" fill="#0ACF83"/>
<path d="M7.33334 21.9997C7.33334 17.9517 10.6188 14.6663 14.6668 14.6663H22.0002V29.3329H14.6668C10.6188 29.3331 7.33334 26.0477 7.33334 21.9997Z" fill="#A259FF"/>
<path d="M7.33334 7.33315C7.33334 3.28515 10.6188 -0.000244141 14.6668 -0.000244141H22.0002V14.6664H14.6668C10.6188 14.6664 7.33334 11.3811 7.33334 7.33315Z" fill="#F24E1E"/>
<path d="M21.9998 -0.000244141H29.3332C33.3813 -0.000244141 36.6667 3.28515 36.6667 7.33315C36.6667 11.3811 33.3813 14.6664 29.3332 14.6664H21.9998V-0.000244141Z" fill="#FF7262"/>
<path d="M36.6667 21.9997C36.6667 26.0477 33.3813 29.3331 29.3332 29.3331C25.2852 29.3331 21.9998 26.0477 21.9998 21.9997C21.9998 17.9517 25.2852 14.6663 29.3332 14.6663C33.3813 14.6663 36.6667 17.9517 36.6667 21.9997Z" fill="#1ABCFE"/>
</g>
<defs>
<clipPath id="clip0_43_45">
<rect width="44" height="44" fill="white" transform="translate(0 -0.000244141)"/>
</clipPath>
</defs>
</svg>
