<svg width="44" height="44" viewBox="0 0 44 44" fill="none" xmlns="http://www.w3.org/2000/svg">
<g clip-path="url(#clip0_43_36)">
<path fill-rule="evenodd" clip-rule="evenodd" d="M22.0004 0.916626C16.7776 0.919336 11.7262 2.76912 7.74921 6.13522C3.77226 9.50132 1.12915 14.1642 0.292498 19.2902C-0.544155 24.4161 0.480197 29.6709 3.18241 34.1148C5.88463 38.5587 10.0885 41.9019 15.0423 43.5468C16.1352 43.7497 16.5468 43.0723 16.5468 42.4964C16.5468 41.9204 16.525 40.2506 16.5177 38.425C10.3975 39.7471 9.10425 35.8423 9.10425 35.8423C8.10608 33.3067 6.66346 32.6402 6.66346 32.6402C4.66712 31.2855 6.81284 31.3109 6.81284 31.3109C9.02411 31.4666 10.1862 33.5675 10.1862 33.5675C12.1461 36.9109 15.3337 35.9437 16.5869 35.3787C16.7836 33.9624 17.3556 32.9988 17.9858 32.4519C13.0969 31.9013 7.96036 30.025 7.96036 21.6431C7.93006 19.4693 8.74132 17.3671 10.2263 15.7715C10.0004 15.2209 9.24632 12.9968 10.4412 9.97586C10.4412 9.97586 12.2882 9.38906 16.4922 12.218C20.0981 11.2375 23.9026 11.2375 27.5085 12.218C31.7089 9.38906 33.5522 9.97586 33.5522 9.97586C34.7507 12.9896 33.9966 15.2136 33.7708 15.7715C35.2604 17.3674 36.0734 19.4732 36.0403 21.6504C36.0403 30.0503 30.8928 31.9013 25.9967 32.441C26.7836 33.122 27.4867 34.4514 27.4867 36.4943C27.4867 39.4211 27.4612 41.7755 27.4612 42.4964C27.4612 43.0796 27.8582 43.7605 28.973 43.5468C33.9274 41.9018 38.1316 38.5579 40.8338 34.1132C43.536 29.6685 44.5598 24.413 43.7222 19.2866C42.8846 14.1602 40.2402 9.49722 36.2619 6.1317C32.2836 2.76619 27.231 0.917618 22.0076 0.916626H22.0004Z" fill="#191717"/>
<path d="M8.33142 32.3252C8.28406 32.4338 8.10919 32.4664 7.96712 32.3904C7.82504 32.3143 7.7194 32.173 7.77041 32.0607C7.82141 31.9484 7.99263 31.9195 8.1347 31.9955C8.27678 32.0716 8.38606 32.2165 8.33142 32.3252Z" fill="#191717"/>
<path d="M9.22398 33.314C9.14853 33.3518 9.06222 33.3623 8.97981 33.3438C8.89741 33.3253 8.82404 33.2789 8.77225 33.2126C8.63018 33.0604 8.60102 32.8503 8.71031 32.7562C8.81959 32.662 9.01633 32.7054 9.15841 32.8576C9.30048 33.0097 9.33326 33.2198 9.22398 33.314Z" fill="#191717"/>
<path d="M10.0911 34.5709C9.95626 34.6651 9.72674 34.5709 9.59924 34.3826C9.56398 34.3488 9.53595 34.3083 9.51679 34.2634C9.49764 34.2186 9.48775 34.1704 9.48775 34.1218C9.48775 34.0731 9.49764 34.0249 9.51679 33.9801C9.53595 33.9353 9.56398 33.8947 9.59924 33.861C9.73403 33.7704 9.96355 33.861 10.0911 34.0457C10.2186 34.2304 10.2222 34.4767 10.0911 34.5709V34.5709Z" fill="#191717"/>
<path d="M11.2677 35.788C11.1475 35.922 10.9034 35.8858 10.703 35.7047C10.5027 35.5236 10.4553 35.2773 10.5755 35.1469C10.6957 35.0165 10.9398 35.0527 11.1475 35.2302C11.3551 35.4077 11.3952 35.6576 11.2677 35.788V35.788Z" fill="#191717"/>
<path d="M12.9179 36.498C12.8633 36.6682 12.6155 36.7443 12.3678 36.6718C12.1201 36.5994 11.9562 36.3965 12.0035 36.2227C12.0509 36.0488 12.3022 35.9691 12.5536 36.0488C12.805 36.1285 12.9653 36.3205 12.9179 36.498Z" fill="#191717"/>
<path d="M14.7176 36.6211C14.7176 36.7986 14.5136 36.9507 14.2513 36.9543C13.989 36.9579 13.7741 36.8131 13.7741 36.6356C13.7741 36.4581 13.9781 36.3059 14.2404 36.3023C14.5027 36.2987 14.7176 36.44 14.7176 36.6211Z" fill="#191717"/>
<path d="M16.3934 36.3422C16.4262 36.5197 16.244 36.7044 15.9817 36.7479C15.7194 36.7914 15.4899 36.6863 15.4571 36.5125C15.4243 36.3386 15.6138 36.1503 15.8688 36.1032C16.1238 36.0561 16.3606 36.1647 16.3934 36.3422Z" fill="#191717"/>
</g>
<defs>
<clipPath id="clip0_43_36">
<rect width="43.9997" height="43.9997" fill="white"/>
</clipPath>
</defs>
</svg>
