<svg width="44" height="44" viewBox="0 0 44 44" fill="none" xmlns="http://www.w3.org/2000/svg">
<g clip-path="url(#clip0_43_53)">
<path d="M22 3.96147C27.8781 3.96147 28.5742 3.98726 30.8859 4.09038C33.0344 4.18491 34.1945 4.54585 34.968 4.84663C35.9906 5.24194 36.7297 5.72319 37.4945 6.48804C38.268 7.26148 38.7406 7.99194 39.1359 9.0146C39.4367 9.78804 39.7977 10.9568 39.8922 13.0966C39.9953 15.4169 40.0211 16.113 40.0211 21.9826C40.0211 27.8607 39.9953 28.5568 39.8922 30.8685C39.7977 33.0169 39.4367 34.1771 39.1359 34.9505C38.7406 35.9732 38.2594 36.7123 37.4945 37.4771C36.7211 38.2505 35.9906 38.7232 34.968 39.1185C34.1945 39.4193 33.0258 39.7802 30.8859 39.8748C28.5656 39.9779 27.8695 40.0037 22 40.0037C16.1219 40.0037 15.4258 39.9779 13.1141 39.8748C10.9656 39.7802 9.80547 39.4193 9.03203 39.1185C8.00938 38.7232 7.27031 38.2419 6.50547 37.4771C5.73203 36.7037 5.25938 35.9732 4.86406 34.9505C4.56328 34.1771 4.20234 33.0084 4.10781 30.8685C4.00469 28.5482 3.97891 27.8521 3.97891 21.9826C3.97891 16.1044 4.00469 15.4084 4.10781 13.0966C4.20234 10.9482 4.56328 9.78804 4.86406 9.0146C5.25938 7.99194 5.74063 7.25288 6.50547 6.48804C7.27891 5.7146 8.00938 5.24194 9.03203 4.84663C9.80547 4.54585 10.9742 4.18491 13.1141 4.09038C15.4258 3.98726 16.1219 3.96147 22 3.96147ZM22 -0.000244141C16.0273 -0.000244141 15.2797 0.0255371 12.9336 0.128662C10.5961 0.231787 8.98906 0.609912 7.59688 1.15132C6.14453 1.71851 4.91563 2.46616 3.69531 3.69507C2.46641 4.91538 1.71875 6.14429 1.15156 7.58804C0.610156 8.98882 0.232031 10.5873 0.128906 12.9248C0.0257813 15.2794 0 16.0271 0 21.9998C0 27.9724 0.0257813 28.7201 0.128906 31.0662C0.232031 33.4037 0.610156 35.0107 1.15156 36.4029C1.71875 37.8552 2.46641 39.0841 3.69531 40.3044C4.91563 41.5248 6.14453 42.281 7.58828 42.8396C8.98906 43.381 10.5875 43.7591 12.925 43.8623C15.2711 43.9654 16.0188 43.9912 21.9914 43.9912C27.9641 43.9912 28.7117 43.9654 31.0578 43.8623C33.3953 43.7591 35.0024 43.381 36.3945 42.8396C37.8383 42.281 39.0672 41.5248 40.2875 40.3044C41.5078 39.0841 42.2641 37.8552 42.8227 36.4115C43.3641 35.0107 43.7422 33.4123 43.8453 31.0748C43.9484 28.7287 43.9742 27.981 43.9742 22.0084C43.9742 16.0357 43.9484 15.288 43.8453 12.9419C43.7422 10.6044 43.3641 8.99741 42.8227 7.60523C42.2813 6.14429 41.5336 4.91538 40.3047 3.69507C39.0844 2.47476 37.8555 1.71851 36.4117 1.15991C35.0109 0.618506 33.4125 0.240381 31.075 0.137256C28.7203 0.0255371 27.9727 -0.000244141 22 -0.000244141Z" fill="#000100"/>
<path d="M22 10.699C15.761 10.699 10.6992 15.7607 10.6992 21.9998C10.6992 28.2388 15.761 33.3005 22 33.3005C28.2391 33.3005 33.3008 28.2388 33.3008 21.9998C33.3008 15.7607 28.2391 10.699 22 10.699ZM22 29.3302C17.9524 29.3302 14.6696 26.0474 14.6696 21.9998C14.6696 17.9521 17.9524 14.6693 22 14.6693C26.0477 14.6693 29.3305 17.9521 29.3305 21.9998C29.3305 26.0474 26.0477 29.3302 22 29.3302Z" fill="#000100"/>
<path d="M36.386 10.2521C36.386 11.7131 35.2 12.8904 33.7477 12.8904C32.2867 12.8904 31.1094 11.7045 31.1094 10.2521C31.1094 8.79118 32.2953 7.61383 33.7477 7.61383C35.2 7.61383 36.386 8.79977 36.386 10.2521Z" fill="#000100"/>
</g>
<defs>
<clipPath id="clip0_43_53">
<rect width="44" height="44" fill="white" transform="translate(0 -0.000244141)"/>
</clipPath>
</defs>
</svg>
