<svg width="34" height="34" viewBox="0 0 34 34" fill="none" xmlns="http://www.w3.org/2000/svg">
<path d="M18.4166 17C18.4166 16.2176 19.0509 15.5833 19.8333 15.5833H26.9166C27.699 15.5833 28.3333 16.2176 28.3333 17V26.9167C28.3333 27.6991 27.699 28.3333 26.9166 28.3333H19.8333C19.0509 28.3333 18.4166 27.6991 18.4166 26.9167V17Z" stroke="black" stroke-width="2.83333" stroke-linecap="round"/>
<path d="M5.66663 7.08333C5.66663 6.30093 6.30089 5.66667 7.08329 5.66667H12.75C13.5324 5.66667 14.1666 6.30093 14.1666 7.08333V17C14.1666 17.7824 13.5324 18.4167 12.75 18.4167H7.08329C6.30089 18.4167 5.66663 17.7824 5.66663 17V7.08333Z" stroke="black" stroke-width="2.83333" stroke-linecap="round"/>
<path d="M5.66663 24.0833C5.66663 23.3009 6.30089 22.6667 7.08329 22.6667H12.75C13.5324 22.6667 14.1666 23.3009 14.1666 24.0833V26.9167C14.1666 27.6991 13.5324 28.3333 12.75 28.3333H7.08329C6.30089 28.3333 5.66663 27.6991 5.66663 26.9167V24.0833Z" stroke="black" stroke-width="2.83333" stroke-linecap="round"/>
<path d="M18.4166 7.08333C18.4166 6.30093 19.0509 5.66667 19.8333 5.66667H26.9166C27.699 5.66667 28.3333 6.30093 28.3333 7.08333V9.91667C28.3333 10.6991 27.699 11.3333 26.9166 11.3333H19.8333C19.0509 11.3333 18.4166 10.6991 18.4166 9.91667V7.08333Z" stroke="black" stroke-width="2.83333" stroke-linecap="round"/>
</svg>
