<svg width="34" height="34" viewBox="0 0 34 34" fill="none" xmlns="http://www.w3.org/2000/svg">
<path d="M24.0403 27.6316C23.6947 24.8331 21.3087 22.6667 18.4167 22.6667H15.5833C12.6913 22.6667 10.3053 24.8331 9.95968 27.6316M24.0403 27.6316C27.4814 25.3484 29.75 21.4391 29.75 17C29.75 9.95837 24.0416 4.25 17 4.25C9.95837 4.25 4.25 9.95837 4.25 17C4.25 21.4391 6.5186 25.3484 9.95968 27.6316M24.0403 27.6316C22.0229 28.9703 19.6025 29.75 17 29.75C14.3975 29.75 11.9771 28.9703 9.95968 27.6316M21.25 14.1667C21.25 16.5139 19.3472 18.4167 17 18.4167C14.6528 18.4167 12.75 16.5139 12.75 14.1667C12.75 11.8195 14.6528 9.91667 17 9.91667C19.3472 9.91667 21.25 11.8195 21.25 14.1667Z" stroke="black" stroke-width="2.83333" stroke-linecap="round" stroke-linejoin="round"/>
</svg>
