<svg width="44" height="44" viewBox="0 0 44 44" fill="none" xmlns="http://www.w3.org/2000/svg">
<g clip-path="url(#clip0_43_51)">
<path d="M13.8371 39.876C30.441 39.876 39.5226 26.1198 39.5226 14.1906C39.5226 13.7998 39.5226 13.4109 39.4962 13.0237C41.2629 11.7458 42.788 10.1635 44 8.35089C42.3526 9.08129 40.6047 9.56007 38.8151 9.77121C40.6997 8.64314 42.1101 6.86864 42.7839 4.77809C41.0119 5.8297 39.0732 6.57077 37.0515 6.96929C35.6904 5.52201 33.8903 4.56366 31.9297 4.24254C29.9691 3.92142 27.9573 4.25543 26.2056 5.19288C24.454 6.13034 23.0601 7.61897 22.2397 9.42843C21.4193 11.2379 21.2182 13.2673 21.6674 15.2026C18.0783 15.0225 14.5672 14.0898 11.362 12.4649C8.15679 10.84 5.32908 8.55927 3.06241 5.77073C1.90801 7.75805 1.55444 10.1106 2.07369 12.3495C2.59294 14.5884 3.94597 16.5451 5.85729 17.8214C4.4206 17.7794 3.0152 17.3918 1.76001 16.6915V16.8059C1.76058 18.8902 2.48207 20.91 3.8021 22.5229C5.12214 24.1358 6.95945 25.2425 9.00241 25.6552C7.67339 26.0177 6.27894 26.0707 4.92625 25.8101C5.50333 27.6037 6.62646 29.1721 8.13861 30.2961C9.65077 31.4202 11.4764 32.0436 13.3602 32.0792C11.4885 33.5504 9.34509 34.6382 7.05261 35.2802C4.76014 35.9223 2.36357 36.106 7.62939e-06 35.821C4.12837 38.4702 8.93187 39.8754 13.8371 39.869" fill="#1DA1F2"/>
</g>
<defs>
<clipPath id="clip0_43_51">
<rect width="44" height="44" fill="white" transform="translate(0 -0.000244141)"/>
</clipPath>
</defs>
</svg>
